<svg xmlns="http://www.w3.org/2000/svg" xmlns:xlink="http://www.w3.org/1999/xlink" id="Layer_1" x="0" y="0" version="1.1" viewBox="0 0 900 900" xml:space="preserve" style="enable-background:new 0 0 900 900"><style type="text/css">.st0{fill:#f15a24}</style><title>pytorch_logo</title><path d="M684.3,284.3l-58.6,58.6c97,97.1,97,254.4,0,351.5s-254.4,97-351.5,0s-97-254.4,0-351.5l-0.1-0.1L429,188	l20.9-20.9l0.1,0.1V50L215.7,284.3c-129.4,129.4-129.4,339.2,0,468.6s339.2,129.4,468.6,0S813.7,413.7,684.3,284.3z" class="st0"/><path d="M597.4,256.2c16.8-16.8,16.8-44.1,0-60.9s-44.1-16.8-60.9,0s-16.8,44.1,0,60.9c0,0,0,0,0,0	C553.3,273.1,580.6,273.1,597.4,256.2C597.4,256.3,597.4,256.3,597.4,256.2z" class="st0"/></svg>